<?xml version="1.0"?>
<svg xmlns="http://www.w3.org/2000/svg" xmlns:xlink="http://www.w3.org/1999/xlink" width="616" zoomAndPan="magnify" viewBox="497.25 440.2499803355 462 614.99997253" height="820" preserveAspectRatio="xMidYMid meet" version="1.0"><defs><clipPath id="60d094a8a6"><path d="M 551 461.226562 L 944 461.226562 L 944 1038.726562 L 551 1038.726562 Z M 551 461.226562 " clip-rule="nonzero"/></clipPath></defs><g clip-path="url(#60d094a8a6)"><path fill="#cdcccc" d="M 908.585938 741.523438 C 908.585938 740.625 908.539062 739.730469 908.453125 738.835938 C 908.363281 737.941406 908.234375 737.054688 908.058594 736.175781 C 907.882812 735.292969 907.664062 734.425781 907.402344 733.566406 C 907.144531 732.707031 906.839844 731.859375 906.496094 731.03125 C 906.152344 730.203125 905.769531 729.390625 905.347656 728.597656 C 904.921875 727.808594 904.460938 727.039062 903.964844 726.292969 C 903.464844 725.542969 902.929688 724.824219 902.359375 724.128906 C 901.789062 723.4375 901.1875 722.769531 900.554688 722.136719 C 899.917969 721.5 899.253906 720.898438 898.558594 720.328125 C 897.863281 719.761719 897.144531 719.226562 896.398438 718.726562 C 895.652344 718.226562 894.882812 717.765625 894.089844 717.34375 C 893.296875 716.921875 892.488281 716.535156 891.65625 716.191406 C 890.828125 715.847656 889.984375 715.546875 889.125 715.285156 C 888.265625 715.027344 887.394531 714.808594 886.511719 714.632812 C 885.632812 714.457031 884.746094 714.328125 883.851562 714.238281 C 882.957031 714.148438 882.0625 714.105469 881.164062 714.105469 C 880.265625 714.105469 879.371094 714.148438 878.476562 714.238281 C 877.582031 714.328125 876.695312 714.457031 875.816406 714.632812 C 874.933594 714.808594 874.0625 715.027344 873.203125 715.285156 C 872.34375 715.546875 871.5 715.847656 870.671875 716.191406 C 869.839844 716.535156 869.03125 716.921875 868.238281 717.34375 C 867.445312 717.765625 866.675781 718.226562 865.929688 718.726562 C 865.183594 719.226562 864.460938 719.761719 863.769531 720.328125 C 863.074219 720.898438 862.410156 721.5 861.773438 722.136719 C 861.140625 722.769531 860.539062 723.4375 859.96875 724.128906 C 859.398438 724.824219 858.863281 725.542969 858.363281 726.292969 C 857.867188 727.039062 857.40625 727.808594 856.980469 728.597656 C 856.558594 729.390625 856.175781 730.203125 855.832031 731.03125 C 855.488281 731.859375 855.183594 732.707031 854.925781 733.566406 C 854.664062 734.425781 854.445312 735.292969 854.269531 736.175781 C 854.09375 737.054688 853.964844 737.941406 853.875 738.835938 C 853.789062 739.730469 853.742188 740.625 853.742188 741.523438 C 853.777344 742.820312 853.914062 744.105469 854.148438 745.378906 C 854.382812 746.652344 854.710938 747.902344 855.136719 749.125 C 855.566406 750.347656 856.082031 751.535156 856.691406 752.675781 C 857.300781 753.820312 857.992188 754.910156 858.769531 755.949219 C 859.546875 756.984375 860.398438 757.957031 861.324219 758.863281 C 862.25 759.769531 863.242188 760.597656 864.296875 761.351562 C 865.351562 762.105469 866.457031 762.773438 867.613281 763.355469 C 868.773438 763.9375 869.96875 764.429688 871.199219 764.828125 L 871.199219 806.59375 C 869.722656 802.804688 868.078125 799.089844 866.273438 795.445312 C 864.46875 791.796875 862.511719 788.238281 860.394531 784.765625 C 858.277344 781.292969 856.015625 777.917969 853.605469 774.640625 C 851.191406 771.367188 848.644531 768.199219 845.957031 765.148438 C 843.269531 762.09375 840.453125 759.164062 837.507812 756.359375 C 834.566406 753.550781 831.503906 750.878906 828.328125 748.339844 C 825.148438 745.800781 821.867188 743.40625 818.480469 741.152344 C 815.09375 738.898438 811.613281 736.800781 808.042969 734.851562 C 812.246094 725.710938 816.542969 717.851562 820.65625 710.632812 C 836.386719 687.367188 853.660156 665.3125 872.480469 644.464844 C 882.808594 632.21875 892.589844 620.703125 900.542969 610.652344 C 922.84375 582.6875 947.339844 541.378906 942.769531 516.882812 C 942.492188 515.167969 942.027344 513.503906 941.378906 511.890625 C 940.730469 510.277344 939.910156 508.753906 938.921875 507.324219 C 937.933594 505.894531 936.800781 504.589844 935.523438 503.410156 C 934.242188 502.234375 932.851562 501.210938 931.34375 500.34375 C 900.359375 482.0625 858.222656 541.46875 816.816406 598.769531 C 789.398438 636.605469 775.230469 690.160156 768.738281 720.230469 C 756.003906 717.441406 743.117188 716.039062 730.078125 716.023438 C 720.625 715.996094 711.234375 716.746094 701.910156 718.28125 C 692.582031 719.816406 683.449219 722.109375 674.503906 725.164062 C 673.339844 691.589844 674.34375 658.078125 677.519531 624.632812 C 686.660156 537.722656 682.640625 486.726562 665.730469 469.269531 C 664.644531 467.957031 663.425781 466.785156 662.070312 465.753906 C 660.714844 464.722656 659.261719 463.859375 657.710938 463.160156 C 656.15625 462.464844 654.542969 461.953125 652.875 461.625 C 651.203125 461.296875 649.515625 461.167969 647.816406 461.226562 C 597.910156 463.695312 603.578125 612.753906 604.398438 629.753906 C 606.410156 670.511719 622.679688 720.046875 632.550781 747.464844 C 626.828125 751.992188 621.488281 756.933594 616.53125 762.289062 C 611.574219 767.644531 607.058594 773.351562 602.988281 779.40625 C 598.914062 785.464844 595.335938 791.796875 592.246094 798.410156 C 589.15625 805.019531 586.597656 811.832031 584.566406 818.839844 L 581 818.839844 C 580.0625 818.796875 579.128906 818.800781 578.191406 818.851562 C 577.253906 818.902344 576.324219 818.996094 575.394531 819.140625 C 574.46875 819.28125 573.550781 819.46875 572.644531 819.703125 C 571.734375 819.933594 570.839844 820.210938 569.960938 820.53125 C 569.078125 820.855469 568.214844 821.21875 567.371094 821.625 C 566.527344 822.03125 565.703125 822.480469 564.902344 822.96875 C 564.101562 823.457031 563.328125 823.980469 562.578125 824.546875 C 561.832031 825.113281 561.113281 825.710938 560.421875 826.347656 C 559.734375 826.984375 559.078125 827.652344 558.457031 828.351562 C 557.832031 829.054688 557.246094 829.785156 556.695312 830.542969 C 556.144531 831.300781 555.632812 832.085938 555.160156 832.894531 C 554.6875 833.707031 554.253906 834.535156 553.863281 835.386719 C 553.472656 836.242188 553.125 837.109375 552.820312 837.996094 C 552.515625 838.882812 552.257812 839.78125 552.039062 840.695312 C 551.824219 841.609375 551.65625 842.527344 551.53125 843.457031 C 551.40625 844.386719 551.328125 845.320312 551.292969 846.257812 L 551.292969 893.507812 C 551.328125 894.441406 551.410156 895.375 551.539062 896.304688 C 551.664062 897.230469 551.835938 898.152344 552.054688 899.0625 C 552.273438 899.972656 552.535156 900.871094 552.839844 901.757812 C 553.148438 902.640625 553.496094 903.507812 553.886719 904.359375 C 554.28125 905.210938 554.710938 906.039062 555.1875 906.847656 C 555.660156 907.65625 556.171875 908.441406 556.722656 909.199219 C 557.273438 909.957031 557.859375 910.683594 558.484375 911.386719 C 559.105469 912.085938 559.761719 912.753906 560.449219 913.386719 C 561.136719 914.023438 561.855469 914.625 562.601562 915.1875 C 563.351562 915.753906 564.125 916.277344 564.921875 916.765625 C 565.722656 917.253906 566.542969 917.703125 567.386719 918.109375 C 568.230469 918.519531 569.09375 918.882812 569.972656 919.207031 C 570.851562 919.527344 571.746094 919.808594 572.652344 920.042969 C 573.558594 920.277344 574.476562 920.464844 575.402344 920.609375 C 576.328125 920.753906 577.257812 920.851562 578.191406 920.90625 C 579.128906 920.957031 580.0625 920.964844 581 920.925781 L 587.03125 920.925781 C 590.46875 928.972656 594.71875 936.566406 599.789062 943.699219 C 604.859375 950.835938 610.632812 957.347656 617.105469 963.238281 L 607.964844 971.28125 C 607.4375 971.734375 606.957031 972.238281 606.527344 972.785156 C 606.097656 973.335938 605.726562 973.921875 605.410156 974.542969 C 605.097656 975.164062 604.84375 975.8125 604.65625 976.480469 C 604.46875 977.152344 604.34375 977.835938 604.289062 978.53125 C 604.234375 979.226562 604.246094 979.917969 604.328125 980.609375 C 604.410156 981.304688 604.554688 981.980469 604.769531 982.644531 C 604.980469 983.308594 605.257812 983.945312 605.59375 984.554688 C 605.933594 985.164062 606.328125 985.734375 606.777344 986.269531 C 634.195312 1019.625 679.074219 1038.726562 729.4375 1038.726562 C 779.800781 1038.726562 824.859375 1019.625 852.097656 986.269531 C 852.546875 985.734375 852.941406 985.164062 853.277344 984.554688 C 853.617188 983.945312 853.890625 983.308594 854.105469 982.644531 C 854.316406 981.980469 854.464844 981.304688 854.546875 980.609375 C 854.625 979.917969 854.636719 979.226562 854.582031 978.53125 C 854.527344 977.835938 854.40625 977.152344 854.21875 976.480469 C 854.03125 975.8125 853.777344 975.164062 853.460938 974.542969 C 853.148438 973.921875 852.773438 973.335938 852.34375 972.785156 C 851.917969 972.238281 851.4375 971.734375 850.910156 971.28125 L 841.769531 963.238281 C 848.261719 957.21875 854.042969 950.582031 859.113281 943.328125 C 864.179688 936.070312 868.425781 928.359375 871.839844 920.191406 L 878.695312 920.191406 C 879.632812 920.234375 880.566406 920.226562 881.503906 920.171875 C 882.4375 920.121094 883.367188 920.023438 884.292969 919.878906 C 885.21875 919.734375 886.136719 919.546875 887.042969 919.308594 C 887.949219 919.074219 888.84375 918.796875 889.722656 918.476562 C 890.601562 918.152344 891.464844 917.789062 892.308594 917.378906 C 893.152344 916.972656 893.972656 916.523438 894.773438 916.035156 C 895.570312 915.546875 896.347656 915.019531 897.09375 914.457031 C 897.839844 913.890625 898.558594 913.292969 899.246094 912.65625 C 899.933594 912.019531 900.589844 911.355469 901.214844 910.652344 C 901.835938 909.953125 902.421875 909.226562 902.972656 908.46875 C 903.523438 907.710938 904.035156 906.925781 904.511719 906.117188 C 904.984375 905.308594 905.417969 904.480469 905.808594 903.628906 C 906.199219 902.777344 906.550781 901.910156 906.855469 901.023438 C 907.160156 900.140625 907.421875 899.242188 907.640625 898.332031 C 907.859375 897.417969 908.03125 896.5 908.160156 895.570312 C 908.285156 894.644531 908.367188 893.710938 908.402344 892.777344 L 908.402344 845.890625 C 908.367188 844.558594 908.234375 843.238281 908.007812 841.925781 C 907.777344 840.613281 907.449219 839.324219 907.027344 838.0625 C 906.605469 836.796875 906.09375 835.570312 905.488281 834.382812 C 904.882812 833.195312 904.195312 832.058594 903.421875 830.972656 C 902.648438 829.890625 901.796875 828.867188 900.871094 827.910156 C 899.949219 826.949219 898.957031 826.066406 897.898438 825.253906 C 896.839844 824.441406 895.730469 823.714844 894.566406 823.066406 C 893.398438 822.421875 892.191406 821.867188 890.945312 821.398438 L 890.945312 764.828125 C 892.1875 764.441406 893.394531 763.957031 894.5625 763.382812 C 895.730469 762.808594 896.847656 762.144531 897.914062 761.398438 C 898.976562 760.648438 899.980469 759.820312 900.917969 758.917969 C 901.851562 758.011719 902.714844 757.042969 903.5 756.003906 C 904.285156 754.964844 904.988281 753.871094 905.605469 752.726562 C 906.21875 751.578125 906.742188 750.390625 907.175781 749.160156 C 907.605469 747.933594 907.941406 746.675781 908.175781 745.398438 C 908.414062 744.117188 908.550781 742.824219 908.585938 741.523438 Z M 908.585938 741.523438 " fill-opacity="1" fill-rule="nonzero"/></g><path fill="#ffffff" d="M 684.925781 970.640625 C 693.332031 965.066406 671.214844 967.167969 669.386719 963.421875 C 660.535156 962.636719 651.820312 961.085938 643.246094 958.761719 C 627.707031 954.648438 590.414062 929.605469 586.394531 905.570312 C 582.371094 881.535156 586.394531 835.929688 603.210938 808.511719 C 608.476562 800.160156 614.472656 792.375 621.207031 785.152344 C 627.9375 777.929688 635.285156 771.398438 643.246094 765.558594 C 643.246094 765.558594 610.613281 687.96875 607.871094 629.386719 C 605.128906 570.804688 609.699219 466.527344 647.90625 464.699219 C 686.113281 462.871094 680.535156 560.476562 674.046875 623.996094 C 670.1875 666.230469 669.578125 708.515625 672.21875 750.84375 C 688.578125 745.652344 705.332031 742.847656 722.492188 742.4375 C 737.582031 742.085938 752.511719 743.488281 767.277344 746.640625 C 767.277344 746.640625 779.433594 656.710938 819.46875 600.414062 C 859.5 544.117188 901.730469 486.632812 929.148438 502.992188 C 956.570312 519.351562 921.65625 577.75 897.433594 608.183594 C 873.210938 638.617188 831.257812 684.3125 817.273438 708.714844 C 808.097656 724.96875 800.023438 741.753906 793.050781 759.070312 C 799.25 762.25 805.171875 765.886719 810.8125 769.972656 C 816.453125 774.058594 821.75 778.554688 826.707031 783.453125 C 831.660156 788.351562 836.210938 793.597656 840.359375 799.191406 C 844.507812 804.789062 848.210938 810.667969 851.457031 816.828125 C 871.199219 856.21875 872.664062 904.65625 862.0625 925.21875 C 860.734375 927.585938 859.28125 929.871094 857.703125 932.078125 C 856.125 934.285156 854.429688 936.398438 852.617188 938.417969 C 850.804688 940.4375 848.886719 942.351562 846.863281 944.160156 C 844.839844 945.96875 842.722656 947.660156 840.515625 949.238281 C 838.304688 950.8125 836.015625 952.261719 833.648438 953.582031 C 831.277344 954.90625 828.84375 956.09375 826.34375 957.148438 C 823.84375 958.203125 821.292969 959.117188 818.691406 959.890625 C 816.089844 960.664062 813.453125 961.292969 810.785156 961.777344 C 798.628906 962.324219 747.535156 975.027344 747.535156 975.027344 Z M 684.925781 970.640625 " fill-opacity="1" fill-rule="nonzero"/><path fill="#dd00a1" d="M 774.40625 747.464844 C 774.40625 747.464844 804.933594 667.863281 832.265625 623.171875 C 859.59375 578.480469 896.246094 544.667969 907.761719 551.519531 C 919.277344 558.375 884.273438 600.140625 853.5625 641.175781 C 828.519531 677.445312 805.882812 715.160156 785.648438 754.316406 Z M 774.40625 747.464844 " fill-opacity="1" fill-rule="nonzero"/><path fill="#dd00a1" d="M 651.835938 761.082031 L 660.976562 754.316406 C 660.976562 754.316406 659.699219 674.714844 660.976562 626.371094 C 662.257812 578.023438 664.722656 517.617188 648.546875 518.164062 C 632.367188 518.710938 621.125 565.414062 627.433594 631.304688 C 631.980469 675.238281 640.117188 718.496094 651.835938 761.082031 Z M 651.835938 761.082031 " fill-opacity="1" fill-rule="nonzero"/><path fill="#f9d8d2" d="M 642.332031 913.976562 C 642.332031 914.558594 642.300781 915.136719 642.246094 915.714844 C 642.1875 916.292969 642.105469 916.867188 641.992188 917.4375 C 641.878906 918.007812 641.734375 918.570312 641.566406 919.125 C 641.398438 919.679688 641.203125 920.226562 640.980469 920.761719 C 640.757812 921.300781 640.511719 921.824219 640.238281 922.335938 C 639.964844 922.847656 639.664062 923.347656 639.34375 923.828125 C 639.019531 924.3125 638.675781 924.777344 638.304688 925.226562 C 637.9375 925.675781 637.546875 926.105469 637.136719 926.515625 C 636.726562 926.925781 636.296875 927.316406 635.847656 927.683594 C 635.398438 928.050781 634.933594 928.398438 634.449219 928.71875 C 633.96875 929.042969 633.46875 929.339844 632.957031 929.613281 C 632.445312 929.886719 631.921875 930.136719 631.382812 930.359375 C 630.847656 930.582031 630.300781 930.777344 629.746094 930.945312 C 629.191406 931.113281 628.628906 931.253906 628.058594 931.367188 C 627.488281 931.480469 626.914062 931.566406 626.335938 931.621094 C 625.757812 931.679688 625.179688 931.707031 624.597656 931.707031 C 624.019531 931.707031 623.4375 931.679688 622.859375 931.621094 C 622.28125 931.566406 621.710938 931.480469 621.140625 931.367188 C 620.570312 931.253906 620.007812 931.113281 619.453125 930.945312 C 618.894531 930.777344 618.351562 930.582031 617.8125 930.359375 C 617.277344 930.136719 616.753906 929.886719 616.238281 929.613281 C 615.726562 929.339844 615.230469 929.042969 614.746094 928.71875 C 614.265625 928.398438 613.800781 928.050781 613.351562 927.683594 C 612.902344 927.316406 612.472656 926.925781 612.0625 926.515625 C 611.648438 926.105469 611.261719 925.675781 610.890625 925.226562 C 610.523438 924.777344 610.179688 924.3125 609.855469 923.828125 C 609.53125 923.34375 609.234375 922.847656 608.960938 922.335938 C 608.6875 921.824219 608.4375 921.300781 608.21875 920.761719 C 607.996094 920.226562 607.800781 919.679688 607.628906 919.125 C 607.460938 918.570312 607.320312 918.007812 607.207031 917.4375 C 607.09375 916.867188 607.007812 916.292969 606.953125 915.714844 C 606.894531 915.136719 606.867188 914.558594 606.867188 913.976562 C 606.867188 913.398438 606.894531 912.820312 606.953125 912.242188 C 607.007812 911.664062 607.09375 911.089844 607.207031 910.519531 C 607.320312 909.949219 607.460938 909.386719 607.628906 908.832031 C 607.800781 908.277344 607.996094 907.730469 608.21875 907.191406 C 608.4375 906.65625 608.6875 906.132812 608.960938 905.621094 C 609.234375 905.109375 609.53125 904.609375 609.855469 904.128906 C 610.179688 903.644531 610.523438 903.179688 610.890625 902.730469 C 611.261719 902.28125 611.648438 901.851562 612.0625 901.441406 C 612.472656 901.03125 612.902344 900.640625 613.351562 900.273438 C 613.800781 899.90625 614.265625 899.558594 614.746094 899.238281 C 615.230469 898.914062 615.726562 898.617188 616.238281 898.34375 C 616.753906 898.066406 617.277344 897.820312 617.8125 897.597656 C 618.351562 897.375 618.894531 897.179688 619.453125 897.011719 C 620.007812 896.84375 620.570312 896.703125 621.140625 896.589844 C 621.710938 896.476562 622.28125 896.390625 622.859375 896.332031 C 623.4375 896.277344 624.019531 896.25 624.597656 896.25 C 625.179688 896.25 625.757812 896.277344 626.335938 896.332031 C 626.914062 896.390625 627.488281 896.476562 628.058594 896.589844 C 628.628906 896.703125 629.191406 896.84375 629.746094 897.011719 C 630.300781 897.179688 630.847656 897.375 631.382812 897.597656 C 631.921875 897.820312 632.445312 898.066406 632.957031 898.34375 C 633.46875 898.617188 633.96875 898.914062 634.449219 899.238281 C 634.933594 899.558594 635.398438 899.90625 635.847656 900.273438 C 636.296875 900.640625 636.726562 901.03125 637.136719 901.441406 C 637.546875 901.851562 637.9375 902.28125 638.304688 902.730469 C 638.675781 903.179688 639.019531 903.644531 639.34375 904.128906 C 639.664062 904.609375 639.964844 905.109375 640.238281 905.621094 C 640.511719 906.132812 640.757812 906.65625 640.980469 907.191406 C 641.203125 907.730469 641.398438 908.277344 641.566406 908.832031 C 641.734375 909.386719 641.878906 909.949219 641.992188 910.519531 C 642.105469 911.089844 642.1875 911.664062 642.246094 912.242188 C 642.300781 912.820312 642.332031 913.398438 642.332031 913.976562 Z M 642.332031 913.976562 " fill-opacity="1" fill-rule="nonzero"/><path fill="#f9d8d2" d="M 851.914062 913.976562 C 851.914062 914.558594 851.886719 915.136719 851.828125 915.714844 C 851.773438 916.292969 851.6875 916.867188 851.574219 917.4375 C 851.460938 918.007812 851.320312 918.570312 851.152344 919.125 C 850.984375 919.679688 850.789062 920.226562 850.566406 920.761719 C 850.34375 921.300781 850.09375 921.824219 849.820312 922.335938 C 849.546875 922.847656 849.25 923.347656 848.925781 923.828125 C 848.605469 924.3125 848.257812 924.777344 847.890625 925.226562 C 847.523438 925.675781 847.132812 926.105469 846.722656 926.515625 C 846.3125 926.925781 845.882812 927.316406 845.433594 927.683594 C 844.984375 928.050781 844.519531 928.398438 844.035156 928.71875 C 843.550781 929.042969 843.054688 929.339844 842.542969 929.613281 C 842.03125 929.886719 841.503906 930.136719 840.96875 930.359375 C 840.433594 930.582031 839.886719 930.777344 839.332031 930.945312 C 838.773438 931.113281 838.210938 931.253906 837.644531 931.367188 C 837.074219 931.480469 836.5 931.566406 835.921875 931.621094 C 835.34375 931.679688 834.765625 931.707031 834.183594 931.707031 C 833.601562 931.707031 833.023438 931.679688 832.445312 931.621094 C 831.867188 931.566406 831.292969 931.480469 830.722656 931.367188 C 830.15625 931.253906 829.59375 931.113281 829.035156 930.945312 C 828.480469 930.777344 827.933594 930.582031 827.398438 930.359375 C 826.859375 930.136719 826.335938 929.886719 825.824219 929.613281 C 825.3125 929.339844 824.816406 929.042969 824.332031 928.71875 C 823.847656 928.398438 823.382812 928.050781 822.933594 927.683594 C 822.484375 927.316406 822.054688 926.925781 821.644531 926.515625 C 821.234375 926.105469 820.84375 925.675781 820.476562 925.226562 C 820.109375 924.777344 819.761719 924.3125 819.441406 923.828125 C 819.117188 923.34375 818.820312 922.847656 818.546875 922.335938 C 818.269531 921.824219 818.023438 921.300781 817.800781 920.761719 C 817.578125 920.226562 817.382812 919.679688 817.214844 919.125 C 817.046875 918.570312 816.90625 918.007812 816.792969 917.4375 C 816.679688 916.867188 816.59375 916.292969 816.535156 915.714844 C 816.480469 915.136719 816.453125 914.558594 816.453125 913.976562 C 816.453125 913.398438 816.480469 912.820312 816.535156 912.242188 C 816.59375 911.664062 816.679688 911.089844 816.792969 910.519531 C 816.90625 909.949219 817.046875 909.386719 817.214844 908.832031 C 817.382812 908.277344 817.578125 907.730469 817.800781 907.191406 C 818.023438 906.65625 818.269531 906.132812 818.546875 905.621094 C 818.820312 905.109375 819.117188 904.609375 819.441406 904.128906 C 819.761719 903.644531 820.109375 903.179688 820.476562 902.730469 C 820.84375 902.28125 821.234375 901.851562 821.644531 901.441406 C 822.054688 901.03125 822.484375 900.640625 822.933594 900.273438 C 823.382812 899.90625 823.847656 899.558594 824.332031 899.238281 C 824.816406 898.914062 825.3125 898.617188 825.824219 898.34375 C 826.335938 898.066406 826.859375 897.820312 827.398438 897.597656 C 827.933594 897.375 828.480469 897.179688 829.035156 897.011719 C 829.59375 896.84375 830.15625 896.703125 830.722656 896.589844 C 831.292969 896.476562 831.867188 896.390625 832.445312 896.332031 C 833.023438 896.277344 833.601562 896.25 834.183594 896.25 C 834.765625 896.25 835.34375 896.277344 835.921875 896.332031 C 836.5 896.390625 837.074219 896.476562 837.644531 896.589844 C 838.210938 896.703125 838.773438 896.84375 839.332031 897.011719 C 839.886719 897.179688 840.433594 897.375 840.96875 897.597656 C 841.503906 897.820312 842.03125 898.066406 842.542969 898.34375 C 843.054688 898.617188 843.550781 898.914062 844.035156 899.238281 C 844.519531 899.558594 844.984375 899.90625 845.433594 900.273438 C 845.882812 900.640625 846.3125 901.03125 846.722656 901.441406 C 847.132812 901.851562 847.523438 902.28125 847.890625 902.730469 C 848.257812 903.179688 848.605469 903.644531 848.925781 904.128906 C 849.25 904.609375 849.546875 905.109375 849.820312 905.621094 C 850.09375 906.132812 850.34375 906.65625 850.566406 907.191406 C 850.789062 907.730469 850.984375 908.277344 851.152344 908.832031 C 851.320312 909.386719 851.460938 909.949219 851.574219 910.519531 C 851.6875 911.089844 851.773438 911.664062 851.828125 912.242188 C 851.886719 912.820312 851.914062 913.398438 851.914062 913.976562 Z M 851.914062 913.976562 " fill-opacity="1" fill-rule="nonzero"/><path fill="#10110e" d="M 758.777344 912.515625 C 758.585938 912.402344 758.375 912.332031 758.15625 912.300781 C 757.933594 912.273438 757.714844 912.289062 757.5 912.347656 C 757.28125 912.410156 757.085938 912.507812 756.914062 912.648438 C 756.738281 912.789062 756.597656 912.957031 756.492188 913.15625 C 756.492188 913.15625 751.191406 922.292969 743.511719 922.84375 C 742.210938 922.804688 740.929688 922.636719 739.664062 922.335938 C 738.398438 922.035156 737.175781 921.609375 735.996094 921.058594 C 734.820312 920.507812 733.707031 919.847656 732.664062 919.070312 C 731.621094 918.292969 730.667969 917.417969 729.800781 916.445312 L 729.800781 902.921875 C 734.738281 900.179688 742.691406 891.953125 742.691406 889.121094 C 742.519531 888.371094 742.28125 887.644531 741.980469 886.9375 C 741.675781 886.230469 741.316406 885.554688 740.890625 884.914062 C 740.46875 884.273438 739.992188 883.671875 739.464844 883.117188 C 738.933594 882.558594 738.359375 882.054688 737.738281 881.601562 C 737.117188 881.148438 736.460938 880.75 735.769531 880.414062 C 735.078125 880.078125 734.363281 879.804688 733.625 879.597656 C 732.886719 879.390625 732.132812 879.25 731.367188 879.175781 C 730.601562 879.101562 729.835938 879.09375 729.070312 879.160156 C 719.929688 879.160156 713.53125 885.097656 713.53125 890.035156 C 713.53125 894.96875 723.585938 901.367188 726.421875 903.195312 L 726.421875 916.539062 C 725.699219 917.453125 724.890625 918.285156 723.996094 919.03125 C 723.097656 919.773438 722.136719 920.417969 721.105469 920.960938 C 720.074219 921.507812 718.996094 921.9375 717.875 922.253906 C 716.753906 922.570312 715.609375 922.765625 714.445312 922.84375 C 707.226562 922.84375 701.742188 912.972656 701.652344 912.882812 C 701.542969 912.683594 701.40625 912.515625 701.230469 912.375 C 701.058594 912.230469 700.867188 912.125 700.65625 912.058594 C 700.441406 911.988281 700.222656 911.964844 700 911.980469 C 699.777344 911.996094 699.566406 912.050781 699.367188 912.152344 C 699.167969 912.265625 698.996094 912.414062 698.851562 912.59375 C 698.707031 912.773438 698.601562 912.976562 698.535156 913.195312 C 698.464844 913.414062 698.441406 913.640625 698.457031 913.871094 C 698.476562 914.101562 698.535156 914.320312 698.632812 914.527344 C 698.632812 914.527344 705.125 926.316406 714.445312 926.316406 C 715.765625 926.257812 717.0625 926.070312 718.339844 925.746094 C 719.617188 925.425781 720.847656 924.976562 722.035156 924.402344 C 723.222656 923.828125 724.339844 923.140625 725.386719 922.339844 C 726.429688 921.539062 727.386719 920.640625 728.25 919.644531 C 730.144531 921.632812 732.339844 923.203125 734.835938 924.355469 C 737.328125 925.507812 739.949219 926.160156 742.691406 926.316406 L 743.785156 926.316406 C 745.433594 925.992188 747.023438 925.492188 748.5625 924.816406 C 750.097656 924.140625 751.539062 923.304688 752.890625 922.308594 C 754.242188 921.3125 755.46875 920.183594 756.570312 918.914062 C 757.671875 917.648438 758.621094 916.277344 759.417969 914.800781 C 759.53125 914.609375 759.601562 914.402344 759.628906 914.179688 C 759.660156 913.957031 759.644531 913.738281 759.582031 913.523438 C 759.523438 913.304688 759.421875 913.113281 759.28125 912.9375 C 759.144531 912.761719 758.972656 912.621094 758.777344 912.515625 Z M 758.777344 912.515625 " fill-opacity="1" fill-rule="nonzero"/><path fill="#e5e5e5" d="M 643.246094 765.742188 C 643.246094 765.742188 617.925781 701.769531 613.082031 668.320312 C 608.238281 634.871094 603.941406 579.03125 610.339844 541.835938 C 613.089844 524.683594 616.808594 507.746094 621.492188 491.019531 C 621.492188 491.019531 609.699219 577.75 614.085938 615.679688 C 618.476562 653.605469 643.246094 765.742188 643.246094 765.742188 Z M 643.246094 765.742188 " fill-opacity="1" fill-rule="nonzero"/><path fill="#e5e5e5" d="M 767.277344 746.640625 C 767.277344 746.640625 785.558594 649.859375 812.15625 611.839844 C 838.753906 573.820312 871.75 527.667969 888.476562 516.0625 L 905.203125 504.363281 C 905.203125 504.363281 838.113281 574.734375 812.15625 632.3125 C 786.199219 689.886719 767.277344 746.640625 767.277344 746.640625 Z M 767.277344 746.640625 " fill-opacity="1" fill-rule="nonzero"/><path fill="#10110e" d="M 660.976562 856.3125 C 660.0625 856.304688 659.15625 856.386719 658.261719 856.558594 C 657.363281 856.734375 656.492188 856.992188 655.644531 857.335938 C 654.800781 857.679688 653.996094 858.105469 653.234375 858.605469 C 652.472656 859.109375 651.765625 859.683594 651.117188 860.324219 C 650.464844 860.96875 649.886719 861.667969 649.375 862.425781 C 648.863281 863.179688 648.429688 863.980469 648.078125 864.824219 C 647.722656 865.664062 647.453125 866.53125 647.273438 867.429688 C 647.089844 868.324219 646.996094 869.226562 646.992188 870.140625 C 646.988281 871.054688 647.074219 871.960938 647.25 872.855469 C 647.421875 873.753906 647.683594 874.625 648.03125 875.46875 C 648.375 876.3125 648.800781 877.117188 649.304688 877.878906 C 649.8125 878.640625 650.386719 879.34375 651.027344 879.992188 C 651.671875 880.640625 652.375 881.21875 653.132812 881.730469 C 653.890625 882.238281 654.691406 882.667969 655.535156 883.019531 C 656.375 883.371094 657.246094 883.640625 658.140625 883.820312 C 659.035156 884 659.941406 884.089844 660.855469 884.09375 C 661.769531 884.09375 662.671875 884.007812 663.570312 883.832031 C 664.464844 883.65625 665.335938 883.394531 666.179688 883.042969 C 667.027344 882.695312 667.828125 882.269531 668.589844 881.761719 C 669.347656 881.257812 670.050781 880.679688 670.699219 880.035156 C 671.34375 879.390625 671.921875 878.6875 672.429688 877.929688 C 672.9375 877.171875 673.367188 876.367188 673.71875 875.523438 C 674.066406 874.679688 674.332031 873.8125 674.511719 872.914062 C 674.6875 872.019531 674.777344 871.117188 674.777344 870.203125 C 674.777344 869.292969 674.691406 868.394531 674.515625 867.503906 C 674.335938 866.613281 674.074219 865.746094 673.730469 864.90625 C 673.382812 864.066406 672.960938 863.269531 672.457031 862.511719 C 671.953125 861.757812 671.382812 861.054688 670.742188 860.410156 C 670.101562 859.765625 669.40625 859.191406 668.652344 858.683594 C 667.898438 858.175781 667.101562 857.746094 666.265625 857.394531 C 665.429688 857.042969 664.5625 856.773438 663.675781 856.59375 C 662.785156 856.410156 661.886719 856.316406 660.976562 856.3125 Z M 664.90625 869.195312 C 664.410156 869.195312 663.933594 869.101562 663.472656 868.910156 C 663.015625 868.722656 662.609375 868.449219 662.257812 868.097656 C 661.90625 867.746094 661.636719 867.34375 661.445312 866.882812 C 661.253906 866.425781 661.160156 865.945312 661.160156 865.449219 C 661.160156 864.953125 661.257812 864.476562 661.445312 864.015625 C 661.636719 863.558594 661.90625 863.152344 662.257812 862.804688 C 662.609375 862.453125 663.015625 862.183594 663.472656 861.992188 C 663.933594 861.804688 664.410156 861.707031 664.90625 861.707031 C 665.402344 861.707031 665.882812 861.804688 666.339844 861.992188 C 666.800781 862.183594 667.203125 862.453125 667.554688 862.804688 C 667.90625 863.152344 668.175781 863.558594 668.367188 864.015625 C 668.558594 864.476562 668.652344 864.953125 668.65625 865.449219 C 668.65625 865.703125 668.628906 865.953125 668.578125 866.203125 C 668.527344 866.453125 668.453125 866.695312 668.351562 866.925781 C 668.253906 867.160156 668.132812 867.382812 667.984375 867.589844 C 667.839844 867.800781 667.675781 867.992188 667.492188 868.167969 C 667.308594 868.339844 667.109375 868.496094 666.894531 868.628906 C 666.679688 868.765625 666.453125 868.878906 666.214844 868.964844 C 665.976562 869.054688 665.730469 869.117188 665.480469 869.15625 C 665.230469 869.195312 664.976562 869.210938 664.722656 869.195312 Z M 664.90625 869.195312 " fill-opacity="1" fill-rule="nonzero"/><path fill="#10110e" d="M 797.347656 856.3125 C 796.4375 856.308594 795.53125 856.398438 794.636719 856.578125 C 793.742188 856.753906 792.875 857.019531 792.03125 857.367188 C 791.1875 857.71875 790.386719 858.144531 789.628906 858.652344 C 788.871094 859.160156 788.167969 859.734375 787.523438 860.378906 C 786.878906 861.023438 786.304688 861.726562 785.796875 862.484375 C 785.289062 863.242188 784.863281 864.042969 784.511719 864.886719 C 784.164062 865.730469 783.898438 866.597656 783.722656 867.492188 C 783.542969 868.386719 783.457031 869.289062 783.457031 870.203125 C 783.457031 871.113281 783.542969 872.015625 783.722656 872.910156 C 783.898438 873.804688 784.164062 874.675781 784.511719 875.519531 C 784.863281 876.359375 785.289062 877.160156 785.796875 877.917969 C 786.304688 878.679688 786.878906 879.378906 787.523438 880.023438 C 788.167969 880.667969 788.871094 881.246094 789.628906 881.753906 C 790.386719 882.257812 791.1875 882.6875 792.03125 883.035156 C 792.875 883.386719 793.742188 883.648438 794.636719 883.828125 C 795.53125 884.003906 796.4375 884.09375 797.347656 884.09375 C 798.261719 884.09375 799.164062 884.003906 800.058594 883.828125 C 800.953125 883.648438 801.824219 883.386719 802.664062 883.035156 C 803.507812 882.6875 804.308594 882.257812 805.066406 881.753906 C 805.824219 881.246094 806.527344 880.667969 807.171875 880.023438 C 807.816406 879.378906 808.394531 878.679688 808.898438 877.917969 C 809.40625 877.160156 809.835938 876.359375 810.183594 875.519531 C 810.53125 874.675781 810.796875 873.808594 810.972656 872.910156 C 811.152344 872.015625 811.242188 871.113281 811.242188 870.203125 C 811.242188 869.289062 811.152344 868.386719 810.972656 867.492188 C 810.796875 866.597656 810.53125 865.730469 810.183594 864.886719 C 809.835938 864.042969 809.40625 863.242188 808.898438 862.484375 C 808.394531 861.726562 807.816406 861.023438 807.171875 860.378906 C 806.527344 859.734375 805.824219 859.160156 805.066406 858.652344 C 804.308594 858.144531 803.507812 857.71875 802.664062 857.367188 C 801.824219 857.019531 800.953125 856.753906 800.058594 856.578125 C 799.164062 856.398438 798.261719 856.308594 797.347656 856.3125 Z M 801.277344 869.195312 C 800.785156 869.183594 800.3125 869.082031 799.859375 868.886719 C 799.40625 868.695312 799.003906 868.421875 798.65625 868.074219 C 798.304688 867.726562 798.035156 867.324219 797.839844 866.871094 C 797.644531 866.417969 797.542969 865.941406 797.53125 865.449219 C 797.601562 864.996094 797.75 864.570312 797.972656 864.171875 C 798.195312 863.769531 798.480469 863.421875 798.828125 863.125 C 799.175781 862.828125 799.5625 862.597656 799.992188 862.441406 C 800.421875 862.28125 800.867188 862.203125 801.324219 862.203125 C 801.78125 862.203125 802.226562 862.28125 802.65625 862.441406 C 803.085938 862.597656 803.472656 862.828125 803.820312 863.125 C 804.167969 863.421875 804.453125 863.769531 804.675781 864.171875 C 804.902344 864.570312 805.046875 864.996094 805.117188 865.449219 C 805.105469 865.949219 805 866.429688 804.800781 866.890625 C 804.597656 867.351562 804.320312 867.753906 803.960938 868.105469 C 803.601562 868.453125 803.191406 868.722656 802.726562 868.914062 C 802.261719 869.101562 801.78125 869.195312 801.277344 869.195312 Z M 801.277344 869.195312 " fill-opacity="1" fill-rule="nonzero"/><path fill="#8accce" d="M 860.507812 875.410156 C 860.507812 876.929688 860.457031 878.449219 860.351562 879.96875 C 860.25 881.484375 860.09375 883 859.886719 884.511719 C 859.679688 886.023438 859.421875 887.53125 859.113281 889.035156 C 858.804688 890.539062 858.441406 892.035156 858.03125 893.527344 C 857.621094 895.015625 857.15625 896.5 856.644531 897.972656 C 856.132812 899.445312 855.570312 900.910156 854.957031 902.363281 C 854.34375 903.820312 853.683594 905.261719 852.972656 906.691406 C 852.261719 908.125 851.503906 909.539062 850.695312 910.945312 C 849.890625 912.347656 849.035156 913.738281 848.132812 915.109375 C 847.230469 916.484375 846.285156 917.84375 845.289062 919.183594 C 844.296875 920.523438 843.257812 921.84375 842.171875 923.148438 C 841.085938 924.449219 839.960938 925.734375 838.789062 926.996094 C 837.617188 928.261719 836.402344 929.503906 835.144531 930.722656 C 833.890625 931.945312 832.589844 933.140625 831.253906 934.316406 C 829.914062 935.492188 828.539062 936.640625 827.121094 937.769531 C 825.707031 938.894531 824.25 939.992188 822.761719 941.070312 C 821.269531 942.144531 819.742188 943.191406 818.179688 944.210938 C 816.617188 945.230469 815.019531 946.222656 813.390625 947.1875 C 811.757812 948.152344 810.097656 949.085938 808.402344 949.992188 C 806.707031 950.898438 804.984375 951.773438 803.230469 952.617188 C 801.476562 953.460938 799.695312 954.273438 797.886719 955.054688 C 796.078125 955.835938 794.242188 956.585938 792.382812 957.300781 C 790.523438 958.015625 788.640625 958.699219 786.730469 959.351562 C 784.824219 960 782.898438 960.613281 780.949219 961.195312 C 779 961.777344 777.035156 962.324219 775.046875 962.835938 C 773.0625 963.347656 771.058594 963.824219 769.042969 964.265625 C 767.023438 964.707031 764.992188 965.113281 762.945312 965.480469 C 760.898438 965.851562 758.839844 966.183594 756.773438 966.480469 C 754.703125 966.777344 752.628906 967.035156 750.539062 967.257812 C 748.453125 967.484375 746.363281 967.667969 744.261719 967.816406 C 742.164062 967.964844 740.0625 968.078125 737.953125 968.152344 C 735.847656 968.226562 733.738281 968.265625 731.628906 968.265625 C 729.519531 968.265625 727.414062 968.226562 725.308594 968.152344 C 723.199219 968.078125 721.097656 967.964844 719 967.816406 C 716.898438 967.667969 714.808594 967.484375 712.71875 967.257812 C 710.632812 967.035156 708.554688 966.777344 706.488281 966.480469 C 704.417969 966.183594 702.363281 965.851562 700.316406 965.480469 C 698.269531 965.113281 696.238281 964.707031 694.21875 964.265625 C 692.203125 963.824219 690.199219 963.347656 688.214844 962.835938 C 686.226562 962.324219 684.261719 961.777344 682.3125 961.195312 C 680.363281 960.613281 678.433594 960 676.527344 959.351562 C 674.621094 958.699219 672.738281 958.015625 670.878906 957.300781 C 669.019531 956.585938 667.183594 955.835938 665.375 955.054688 C 663.566406 954.273438 661.785156 953.460938 660.03125 952.617188 C 658.277344 951.773438 656.554688 950.898438 654.859375 949.992188 C 653.164062 949.085938 651.503906 948.152344 649.871094 947.1875 C 648.242188 946.222656 646.644531 945.230469 645.082031 944.210938 C 643.519531 943.191406 641.992188 942.144531 640.5 941.070312 C 639.007812 939.992188 637.554688 938.894531 636.140625 937.769531 C 634.722656 936.640625 633.34375 935.492188 632.007812 934.316406 C 630.667969 933.140625 629.371094 931.945312 628.117188 930.722656 C 626.859375 929.503906 625.644531 928.261719 624.472656 926.996094 C 623.300781 925.734375 622.171875 924.449219 621.089844 923.148438 C 620.003906 921.84375 618.964844 920.523438 617.972656 919.183594 C 616.976562 917.84375 616.027344 916.484375 615.128906 915.109375 C 614.226562 913.738281 613.371094 912.347656 612.5625 910.945312 C 611.757812 909.539062 611 908.125 610.289062 906.691406 C 609.578125 905.261719 608.914062 903.820312 608.304688 902.363281 C 607.691406 900.910156 607.128906 899.445312 606.617188 897.972656 C 606.105469 896.5 605.640625 895.015625 605.230469 893.527344 C 604.820312 892.035156 604.457031 890.539062 604.148438 889.035156 C 603.839844 887.53125 603.582031 886.023438 603.375 884.511719 C 603.167969 883 603.011719 881.484375 602.910156 879.96875 C 602.804688 878.449219 602.753906 876.929688 602.753906 875.410156 C 602.753906 873.890625 602.804688 872.371094 602.910156 870.855469 C 603.011719 869.335938 603.167969 867.824219 603.375 866.308594 C 603.582031 864.796875 603.839844 863.289062 604.148438 861.785156 C 604.457031 860.285156 604.820312 858.785156 605.230469 857.296875 C 605.640625 855.804688 606.105469 854.324219 606.617188 852.851562 C 607.128906 851.375 607.691406 849.910156 608.304688 848.457031 C 608.914062 847.003906 609.578125 845.5625 610.289062 844.128906 C 611 842.699219 611.757812 841.28125 612.5625 839.878906 C 613.371094 838.472656 614.226562 837.085938 615.128906 835.710938 C 616.027344 834.335938 616.976562 832.980469 617.972656 831.640625 C 618.964844 830.300781 620.003906 828.980469 621.089844 827.675781 C 622.171875 826.371094 623.300781 825.089844 624.472656 823.824219 C 625.644531 822.5625 626.859375 821.320312 628.117188 820.097656 C 629.371094 818.878906 630.667969 817.679688 632.007812 816.503906 C 633.34375 815.332031 634.722656 814.179688 636.140625 813.054688 C 637.554688 811.929688 639.007812 810.828125 640.5 809.753906 C 641.992188 808.679688 643.519531 807.632812 645.082031 806.613281 C 646.644531 805.589844 648.242188 804.597656 649.871094 803.632812 C 651.503906 802.671875 653.164062 801.734375 654.859375 800.832031 C 656.554688 799.925781 658.277344 799.050781 660.03125 798.207031 C 661.785156 797.363281 663.566406 796.550781 665.375 795.769531 C 667.183594 794.988281 669.019531 794.238281 670.878906 793.523438 C 672.738281 792.804688 674.621094 792.121094 676.527344 791.472656 C 678.433594 790.824219 680.363281 790.207031 682.3125 789.625 C 684.261719 789.042969 686.226562 788.496094 688.214844 787.984375 C 690.199219 787.472656 692.203125 786.996094 694.21875 786.554688 C 696.238281 786.113281 698.269531 785.710938 700.316406 785.339844 C 702.363281 784.972656 704.417969 784.636719 706.488281 784.34375 C 708.554688 784.046875 710.632812 783.785156 712.71875 783.5625 C 714.808594 783.339844 716.898438 783.152344 719 783.003906 C 721.097656 782.855469 723.199219 782.746094 725.308594 782.667969 C 727.414062 782.59375 729.519531 782.558594 731.628906 782.558594 C 733.738281 782.558594 735.847656 782.59375 737.953125 782.667969 C 740.0625 782.746094 742.164062 782.855469 744.261719 783.003906 C 746.363281 783.152344 748.453125 783.339844 750.539062 783.5625 C 752.628906 783.785156 754.703125 784.046875 756.773438 784.34375 C 758.839844 784.636719 760.898438 784.972656 762.945312 785.339844 C 764.992188 785.710938 767.023438 786.113281 769.042969 786.554688 C 771.058594 786.996094 773.0625 787.472656 775.046875 787.984375 C 777.035156 788.496094 779 789.042969 780.949219 789.625 C 782.898438 790.207031 784.824219 790.824219 786.730469 791.472656 C 788.640625 792.121094 790.523438 792.804688 792.382812 793.523438 C 794.242188 794.238281 796.078125 794.988281 797.886719 795.769531 C 799.695312 796.550781 801.476562 797.363281 803.230469 798.207031 C 804.984375 799.050781 806.707031 799.925781 808.402344 800.832031 C 810.097656 801.734375 811.757812 802.671875 813.390625 803.632812 C 815.019531 804.597656 816.617188 805.589844 818.179688 806.613281 C 819.742188 807.632812 821.269531 808.679688 822.761719 809.753906 C 824.25 810.828125 825.707031 811.929688 827.121094 813.054688 C 828.539062 814.179688 829.914062 815.332031 831.253906 816.503906 C 832.589844 817.679688 833.890625 818.878906 835.144531 820.097656 C 836.402344 821.320312 837.617188 822.5625 838.789062 823.824219 C 839.960938 825.089844 841.085938 826.371094 842.171875 827.675781 C 843.257812 828.976562 844.296875 830.300781 845.289062 831.640625 C 846.285156 832.980469 847.230469 834.335938 848.132812 835.710938 C 849.035156 837.085938 849.890625 838.472656 850.695312 839.878906 C 851.503906 841.28125 852.261719 842.699219 852.972656 844.128906 C 853.683594 845.5625 854.34375 847.003906 854.957031 848.457031 C 855.570312 849.910156 856.132812 851.375 856.644531 852.851562 C 857.15625 854.324219 857.621094 855.804688 858.03125 857.296875 C 858.441406 858.785156 858.804688 860.285156 859.113281 861.785156 C 859.421875 863.289062 859.679688 864.796875 859.886719 866.308594 C 860.09375 867.824219 860.25 869.335938 860.351562 870.855469 C 860.457031 872.371094 860.507812 873.890625 860.507812 875.410156 Z M 860.507812 875.410156 " fill-opacity="0.2" fill-rule="nonzero"/><path fill="#ffffff" d="M 887.652344 823.773438 L 887.652344 762.816406 C 888.847656 762.554688 890.011719 762.195312 891.148438 761.742188 C 892.285156 761.289062 893.375 760.742188 894.421875 760.109375 C 895.46875 759.476562 896.457031 758.765625 897.386719 757.96875 C 898.316406 757.175781 899.175781 756.308594 899.960938 755.375 C 900.75 754.4375 901.457031 753.445312 902.082031 752.394531 C 902.707031 751.34375 903.242188 750.25 903.6875 749.109375 C 904.132812 747.972656 904.484375 746.804688 904.738281 745.605469 C 904.992188 744.410156 905.144531 743.203125 905.203125 741.980469 C 905.125 741.246094 905.011719 740.515625 904.867188 739.789062 C 904.722656 739.066406 904.542969 738.347656 904.332031 737.640625 C 904.121094 736.929688 903.878906 736.234375 903.601562 735.546875 C 903.328125 734.859375 903.023438 734.1875 902.683594 733.53125 C 902.347656 732.871094 901.984375 732.230469 901.585938 731.605469 C 901.191406 730.980469 900.769531 730.375 900.320312 729.789062 C 899.867188 729.203125 899.390625 728.640625 898.890625 728.097656 C 898.386719 727.554688 897.859375 727.035156 897.308594 726.542969 C 896.761719 726.046875 896.1875 725.578125 895.597656 725.136719 C 895.003906 724.695312 894.390625 724.28125 893.761719 723.894531 C 893.128906 723.507812 892.484375 723.152344 891.820312 722.828125 C 891.15625 722.5 890.480469 722.203125 889.789062 721.941406 C 889.097656 721.675781 888.398438 721.441406 887.683594 721.242188 C 886.972656 721.042969 886.253906 720.875 885.527344 720.738281 C 884.800781 720.605469 884.066406 720.503906 883.332031 720.4375 C 882.59375 720.367188 881.859375 720.335938 881.117188 720.335938 C 880.378906 720.335938 879.640625 720.367188 878.90625 720.4375 C 878.167969 720.503906 877.4375 720.605469 876.710938 720.738281 C 875.980469 720.875 875.261719 721.042969 874.550781 721.242188 C 873.839844 721.441406 873.136719 721.675781 872.449219 721.941406 C 871.757812 722.203125 871.082031 722.5 870.417969 722.828125 C 869.753906 723.152344 869.105469 723.507812 868.476562 723.894531 C 867.84375 724.28125 867.234375 724.695312 866.640625 725.136719 C 866.046875 725.578125 865.476562 726.046875 864.925781 726.542969 C 864.375 727.035156 863.851562 727.554688 863.347656 728.097656 C 862.84375 728.640625 862.367188 729.203125 861.917969 729.789062 C 861.46875 730.375 861.042969 730.980469 860.648438 731.605469 C 860.253906 732.230469 859.886719 732.871094 859.550781 733.53125 C 859.214844 734.1875 858.910156 734.859375 858.632812 735.546875 C 858.359375 736.234375 858.117188 736.929688 857.90625 737.640625 C 857.695312 738.347656 857.515625 739.066406 857.371094 739.789062 C 857.222656 740.515625 857.113281 741.246094 857.035156 741.980469 C 857.085938 743.199219 857.234375 744.40625 857.484375 745.601562 C 857.734375 746.796875 858.078125 747.964844 858.519531 749.101562 C 858.960938 750.242188 859.492188 751.335938 860.113281 752.386719 C 860.734375 753.4375 861.4375 754.429688 862.21875 755.367188 C 863.003906 756.300781 863.859375 757.167969 864.785156 757.960938 C 865.710938 758.757812 866.695312 759.472656 867.738281 760.105469 C 868.785156 760.738281 869.871094 761.285156 871.003906 761.738281 C 872.136719 762.195312 873.300781 762.554688 874.492188 762.816406 L 874.492188 822.222656 L 872.753906 822.222656 C 854.476562 758.796875 800.457031 719.40625 729.984375 719.40625 C 659.515625 719.40625 605.128906 758.429688 587.125 822.222656 L 581 822.222656 C 580.183594 822.183594 579.363281 822.179688 578.546875 822.222656 C 577.726562 822.261719 576.914062 822.339844 576.105469 822.460938 C 575.292969 822.582031 574.492188 822.738281 573.695312 822.9375 C 572.902344 823.132812 572.117188 823.371094 571.347656 823.644531 C 570.574219 823.917969 569.820312 824.230469 569.078125 824.578125 C 568.335938 824.925781 567.613281 825.3125 566.910156 825.730469 C 566.207031 826.148438 565.527344 826.601562 564.867188 827.085938 C 564.207031 827.574219 563.574219 828.089844 562.964844 828.636719 C 562.355469 829.183594 561.773438 829.761719 561.222656 830.363281 C 560.667969 830.96875 560.148438 831.597656 559.65625 832.253906 C 559.164062 832.910156 558.707031 833.585938 558.28125 834.289062 C 557.855469 834.988281 557.46875 835.707031 557.113281 836.445312 C 556.757812 837.183594 556.441406 837.9375 556.160156 838.707031 C 555.878906 839.476562 555.636719 840.257812 555.433594 841.050781 C 555.226562 841.84375 555.0625 842.644531 554.9375 843.453125 C 554.808594 844.261719 554.722656 845.074219 554.675781 845.890625 L 554.675781 893.140625 C 554.726562 893.957031 554.816406 894.769531 554.945312 895.574219 C 555.074219 896.382812 555.238281 897.179688 555.445312 897.972656 C 555.652344 898.761719 555.898438 899.539062 556.179688 900.308594 C 556.460938 901.074219 556.78125 901.824219 557.136719 902.558594 C 557.492188 903.296875 557.882812 904.011719 558.308594 904.710938 C 558.734375 905.40625 559.195312 906.082031 559.6875 906.734375 C 560.175781 907.386719 560.699219 908.015625 561.253906 908.617188 C 561.804688 909.21875 562.386719 909.792969 562.996094 910.335938 C 563.601562 910.882812 564.238281 911.398438 564.894531 911.878906 C 565.554688 912.363281 566.234375 912.8125 566.9375 913.230469 C 567.640625 913.648438 568.363281 914.03125 569.101562 914.375 C 569.84375 914.722656 570.597656 915.03125 571.367188 915.304688 C 572.136719 915.578125 572.917969 915.8125 573.710938 916.011719 C 574.503906 916.207031 575.304688 916.363281 576.113281 916.484375 C 576.921875 916.601562 577.734375 916.679688 578.550781 916.722656 C 579.367188 916.761719 580.183594 916.761719 581 916.71875 L 589.316406 916.71875 C 592.851562 925.683594 597.402344 934.097656 602.964844 941.964844 C 608.527344 949.828125 614.949219 956.921875 622.222656 963.238281 L 610.339844 973.839844 C 609.976562 974.148438 609.644531 974.488281 609.34375 974.859375 C 609.046875 975.234375 608.789062 975.632812 608.570312 976.058594 C 608.351562 976.480469 608.175781 976.921875 608.046875 977.382812 C 607.914062 977.84375 607.828125 978.308594 607.792969 978.785156 C 607.753906 979.261719 607.761719 979.738281 607.816406 980.210938 C 607.875 980.683594 607.976562 981.148438 608.125 981.601562 C 608.273438 982.058594 608.464844 982.492188 608.699219 982.910156 C 608.933594 983.324219 609.207031 983.714844 609.519531 984.074219 C 636.207031 1016.335938 679.988281 1035.253906 729.527344 1035.253906 C 779.066406 1035.253906 822.847656 1016.976562 849.539062 984.074219 C 849.851562 983.714844 850.125 983.324219 850.359375 982.910156 C 850.59375 982.492188 850.785156 982.058594 850.933594 981.601562 C 851.082031 981.148438 851.183594 980.683594 851.238281 980.210938 C 851.292969 979.738281 851.304688 979.261719 851.265625 978.785156 C 851.226562 978.308594 851.140625 977.84375 851.011719 977.382812 C 850.878906 976.921875 850.707031 976.480469 850.488281 976.058594 C 850.269531 975.632812 850.007812 975.234375 849.710938 974.859375 C 849.414062 974.488281 849.082031 974.148438 848.714844 973.839844 L 836.835938 963.238281 C 844.078125 956.894531 850.480469 949.789062 856.042969 941.929688 C 861.601562 934.066406 866.167969 925.664062 869.738281 916.71875 L 878.878906 916.71875 C 879.695312 916.761719 880.511719 916.761719 881.328125 916.722656 C 882.144531 916.679688 882.957031 916.601562 883.765625 916.484375 C 884.574219 916.363281 885.375 916.207031 886.167969 916.011719 C 886.960938 915.8125 887.742188 915.578125 888.511719 915.304688 C 889.28125 915.03125 890.039062 914.722656 890.777344 914.375 C 891.515625 914.03125 892.238281 913.648438 892.941406 913.230469 C 893.644531 912.8125 894.324219 912.363281 894.984375 911.878906 C 895.644531 911.398438 896.277344 910.882812 896.886719 910.335938 C 897.492188 909.792969 898.074219 909.21875 898.628906 908.617188 C 899.179688 908.015625 899.703125 907.386719 900.195312 906.734375 C 900.683594 906.082031 901.144531 905.40625 901.570312 904.710938 C 901.996094 904.011719 902.386719 903.296875 902.742188 902.558594 C 903.097656 901.824219 903.417969 901.074219 903.699219 900.308594 C 903.980469 899.539062 904.226562 898.761719 904.433594 897.972656 C 904.640625 897.179688 904.808594 896.382812 904.933594 895.574219 C 905.0625 894.769531 905.152344 893.957031 905.203125 893.140625 L 905.203125 845.890625 C 905.152344 844.632812 905.003906 843.382812 904.753906 842.148438 C 904.507812 840.914062 904.164062 839.703125 903.726562 838.523438 C 903.285156 837.339844 902.757812 836.199219 902.136719 835.101562 C 901.519531 834.003906 900.820312 832.960938 900.035156 831.972656 C 899.25 830.984375 898.394531 830.066406 897.464844 829.210938 C 896.535156 828.359375 895.546875 827.585938 894.496094 826.890625 C 893.445312 826.195312 892.34375 825.585938 891.199219 825.0625 C 890.050781 824.539062 888.867188 824.109375 887.652344 823.773438 Z M 729.984375 786.761719 C 795.246094 786.761719 848.257812 829.714844 848.257812 882.449219 C 848.257812 939.566406 788.664062 964.699219 729.984375 964.699219 C 671.304688 964.699219 611.710938 939.109375 611.710938 882.449219 C 611.710938 829.714844 664.722656 786.761719 729.984375 786.761719 Z M 729.984375 786.761719 " fill-opacity="1" fill-rule="nonzero"/><path fill="#515151" d="M 892.039062 877.332031 L 874.492188 877.332031 C 874.492188 874.589844 874.492188 871.847656 874.492188 868.738281 C 874.480469 857.046875 873.324219 845.472656 871.019531 834.011719 L 878.421875 834.011719 C 879.246094 833.957031 880.070312 833.984375 880.890625 834.09375 C 881.710938 834.203125 882.511719 834.390625 883.292969 834.664062 C 884.074219 834.933594 884.820312 835.28125 885.53125 835.699219 C 886.242188 836.121094 886.90625 836.609375 887.519531 837.164062 C 888.132812 837.71875 888.6875 838.328125 889.179688 838.992188 C 889.667969 839.65625 890.089844 840.363281 890.4375 841.113281 C 890.789062 841.863281 891.058594 842.640625 891.25 843.445312 C 891.445312 844.25 891.554688 845.066406 891.582031 845.890625 Z M 892.039062 877.332031 " fill-opacity="1" fill-rule="nonzero"/><path fill="#515151" d="M 878.878906 904.929688 L 869.738281 904.929688 C 871.480469 898.46875 872.789062 891.917969 873.667969 885.28125 L 891.949219 885.28125 L 891.949219 893.140625 C 891.921875 893.960938 891.808594 894.769531 891.617188 895.570312 C 891.425781 896.367188 891.15625 897.140625 890.8125 897.882812 C 890.464844 898.628906 890.046875 899.328125 889.558594 899.988281 C 889.070312 900.652344 888.523438 901.253906 887.914062 901.804688 C 887.304688 902.355469 886.644531 902.839844 885.9375 903.257812 C 885.230469 903.675781 884.488281 904.015625 883.714844 904.285156 C 882.9375 904.554688 882.140625 904.742188 881.328125 904.851562 C 880.515625 904.960938 879.699219 904.984375 878.878906 904.929688 Z M 878.878906 904.929688 " fill-opacity="1" fill-rule="nonzero"/><path fill="#515151" d="M 729.984375 1023.097656 C 686.113281 1023.097656 647.175781 1007.289062 622.589844 979.324219 L 634.925781 968.355469 C 641.90625 973.015625 649.203125 977.113281 656.816406 980.648438 C 664.425781 984.183594 672.265625 987.113281 680.328125 989.4375 C 688.394531 991.765625 696.585938 993.457031 704.914062 994.519531 C 713.238281 995.582031 721.59375 996 729.984375 995.773438 C 738.375 995.996094 746.730469 995.574219 755.054688 994.511719 C 763.378906 993.445312 771.574219 991.75 779.636719 989.425781 C 787.703125 987.101562 795.539062 984.171875 803.152344 980.636719 C 810.765625 977.105469 818.0625 973.011719 825.042969 968.355469 L 837.292969 979.324219 C 812.796875 1007.289062 773.765625 1023.097656 729.984375 1023.097656 Z M 729.984375 1023.097656 " fill-opacity="1" fill-rule="nonzero"/><path fill="#515151" d="M 581 834.011719 L 588.859375 834.011719 C 586.574219 845.472656 585.414062 857.050781 585.386719 868.738281 C 585.167969 871.601562 585.167969 874.46875 585.386719 877.332031 L 568.296875 877.332031 L 568.296875 845.890625 C 568.28125 845.070312 568.347656 844.257812 568.503906 843.453125 C 568.660156 842.648438 568.898438 841.867188 569.214844 841.113281 C 569.535156 840.359375 569.929688 839.644531 570.398438 838.972656 C 570.867188 838.296875 571.402344 837.683594 572 837.121094 C 572.601562 836.5625 573.25 836.070312 573.953125 835.648438 C 574.65625 835.222656 575.394531 834.878906 576.171875 834.609375 C 576.945312 834.339844 577.738281 834.15625 578.554688 834.054688 C 579.367188 833.957031 580.183594 833.941406 581 834.011719 Z M 581 834.011719 " fill-opacity="1" fill-rule="nonzero"/><path fill="#000000" d="M 729.984375 778.902344 C 715.066406 778.945312 700.441406 781.046875 686.113281 785.207031 L 686.113281 737.59375 C 700.453125 733.527344 715.078125 731.546875 729.984375 731.652344 C 744.863281 731.550781 759.457031 733.53125 773.765625 737.59375 L 773.765625 785.574219 C 759.511719 781.113281 744.917969 778.890625 729.984375 778.902344 Z M 729.984375 778.902344 " fill-opacity="1" fill-rule="nonzero"/><path fill="#515151" d="M 677.429688 740.335938 L 677.429688 788.40625 C 633.554688 804.492188 602.9375 840.773438 602.9375 882.449219 C 602.9375 936.460938 654.214844 973.015625 729.984375 973.015625 C 805.757812 973.015625 857.035156 936.460938 857.035156 882.449219 C 857.035156 840.773438 826.324219 804.492188 782.542969 788.40625 L 782.542969 740.335938 C 833.816406 758.613281 865.808594 806.046875 865.808594 869.105469 C 865.808594 940.023438 811.425781 987.914062 729.984375 987.914062 C 648.546875 987.914062 594.164062 940.300781 594.164062 869.105469 C 594.164062 806.046875 626.152344 758.796875 677.429688 740.335938 Z M 677.429688 740.335938 " fill-opacity="1" fill-rule="nonzero"/><path fill="#515151" d="M 567.839844 885.28125 L 586.117188 885.28125 C 586.953125 891.925781 588.265625 898.476562 590.050781 904.929688 L 580.910156 904.929688 C 580.085938 904.984375 579.269531 904.960938 578.453125 904.851562 C 577.636719 904.742188 576.839844 904.554688 576.058594 904.289062 C 575.28125 904.019531 574.535156 903.675781 573.828125 903.261719 C 573.117188 902.84375 572.457031 902.359375 571.84375 901.8125 C 571.230469 901.261719 570.675781 900.65625 570.183594 899.996094 C 569.691406 899.335938 569.269531 898.632812 568.917969 897.890625 C 568.566406 897.144531 568.292969 896.375 568.09375 895.574219 C 567.898438 894.773438 567.78125 893.964844 567.746094 893.140625 Z M 567.839844 885.28125 " fill-opacity="1" fill-rule="nonzero"/><path fill="#515151" d="M 892.039062 741.523438 C 892.039062 742.171875 891.96875 742.8125 891.828125 743.449219 C 891.691406 744.085938 891.480469 744.703125 891.207031 745.300781 C 890.929688 745.898438 890.59375 746.46875 890.191406 747.007812 C 889.792969 747.546875 889.335938 748.042969 888.828125 748.503906 C 888.320312 748.960938 887.765625 749.371094 887.167969 749.730469 C 886.566406 750.089844 885.933594 750.394531 885.269531 750.640625 C 884.605469 750.890625 883.917969 751.078125 883.210938 751.203125 C 882.507812 751.332031 881.792969 751.394531 881.074219 751.394531 C 880.351562 751.394531 879.640625 751.332031 878.933594 751.203125 C 878.226562 751.078125 877.539062 750.890625 876.875 750.640625 C 876.210938 750.394531 875.578125 750.089844 874.980469 749.730469 C 874.378906 749.371094 873.824219 748.960938 873.316406 748.503906 C 872.808594 748.042969 872.351562 747.546875 871.953125 747.007812 C 871.550781 746.46875 871.214844 745.898438 870.9375 745.300781 C 870.664062 744.703125 870.457031 744.085938 870.316406 743.449219 C 870.175781 742.8125 870.105469 742.171875 870.105469 741.523438 C 870.105469 740.875 870.175781 740.234375 870.316406 739.597656 C 870.457031 738.960938 870.664062 738.34375 870.9375 737.746094 C 871.214844 737.148438 871.550781 736.578125 871.953125 736.039062 C 872.351562 735.5 872.808594 735.003906 873.316406 734.542969 C 873.824219 734.085938 874.378906 733.675781 874.980469 733.316406 C 875.578125 732.957031 876.210938 732.652344 876.875 732.40625 C 877.539062 732.15625 878.226562 731.96875 878.933594 731.84375 C 879.640625 731.714844 880.351562 731.652344 881.074219 731.652344 C 881.792969 731.652344 882.507812 731.714844 883.210938 731.84375 C 883.917969 731.96875 884.605469 732.15625 885.269531 732.40625 C 885.933594 732.652344 886.566406 732.957031 887.167969 733.316406 C 887.765625 733.675781 888.320312 734.085938 888.828125 734.542969 C 889.335938 735.003906 889.792969 735.5 890.191406 736.039062 C 890.59375 736.578125 890.929688 737.148438 891.207031 737.746094 C 891.480469 738.34375 891.691406 738.960938 891.828125 739.597656 C 891.96875 740.234375 892.039062 740.875 892.039062 741.523438 Z M 892.039062 741.523438 " fill-opacity="1" fill-rule="nonzero"/></svg>
